<svg width="60" height="18" viewBox="0 0 60 18" fill="none" xmlns="http://www.w3.org/2000/svg">
<path d="M32.078 4.228H33.898V10.234C33.898 11.76 34.43 12.53 35.83 12.53C37.23 12.53 37.762 11.76 37.762 10.234V4.228H39.582V9.996C39.582 12.866 38.56 14.168 35.816 14.168C33.072 14.168 32.078 12.866 32.078 9.996V4.228ZM41.018 14L44.182 8.988L41.158 4.228H43.314L45.386 7.7H45.428L47.528 4.228H49.544L46.492 8.988L49.684 14H47.528L45.288 10.248H45.246L43.034 14H41.018ZM53.0358 10.234V14H51.1878V4.228H55.5978C57.3758 4.228 58.4818 5.404 58.4818 7.252C58.4818 8.596 57.8658 9.618 56.6618 10.024L58.6638 14H56.6058L54.7858 10.234H53.0358ZM53.0358 8.68H55.4158C56.1298 8.68 56.5638 8.288 56.5638 7.574V6.93C56.5638 6.216 56.1298 5.838 55.4158 5.838H53.0358V8.68Z" fill="white"/>
<path d="M8.778 14H7.35L6.426 11.242H2.618L1.68 14H0.308L3.696 4.228H5.404L8.778 14ZM6.09 10.038L4.55 5.474H4.48L2.94 10.038H6.09ZM13.2658 14.168C11.6698 14.168 10.5498 13.524 9.7658 12.488L10.7318 11.62C11.4178 12.502 12.2298 12.978 13.3218 12.978C14.6518 12.978 15.3658 12.292 15.3658 11.256C15.3658 10.402 14.9038 9.954 13.6858 9.688L12.8598 9.52C11.0258 9.142 10.0598 8.316 10.0598 6.79C10.0598 5.054 11.3758 4.06 13.3778 4.06C14.8478 4.06 15.8978 4.606 16.6398 5.614L15.6458 6.412C15.1278 5.698 14.4138 5.25 13.3078 5.25C12.1178 5.25 11.4038 5.768 11.4038 6.734C11.4038 7.602 11.9498 7.994 13.1118 8.246L13.9378 8.414C15.8558 8.834 16.7098 9.688 16.7098 11.186C16.7098 12.992 15.4358 14.168 13.2658 14.168ZM24.6203 14L21.4983 9.296L20.1403 10.836V14H18.7823V4.228H20.1403V9.324H20.1963L21.5823 7.588L24.3963 4.228H26.0203L22.4503 8.386L26.2863 14H24.6203Z" fill="white"/>
</svg>
