<svg width="24" height="24" viewBox="0 0 24 24" fill="none" xmlns="http://www.w3.org/2000/svg">
<path d="M0 12C0 5.37258 5.37258 0 12 0V0C18.6274 0 24 5.37258 24 12V12C24 18.6274 18.6274 24 12 24V24C5.37258 24 0 18.6274 0 12V12Z" fill="#8D8D8D"/>
<path d="M8.78142 8.624H10.3414V13.772C10.3414 15.08 10.7974 15.74 11.9974 15.74C13.1974 15.74 13.6534 15.08 13.6534 13.772V8.624H15.2134V13.568C15.2134 16.028 14.3374 17.144 11.9854 17.144C9.63342 17.144 8.78142 16.028 8.78142 13.568V8.624Z" fill="white"/>
</svg>
