<svg width="450" height="267" viewBox="0 0 450 267" fill="none" xmlns="http://www.w3.org/2000/svg">
<path d="M132.153 128H124.937L119.197 111.108H96.0726L90.3326 128H83.3626L103.371 70.764H112.145L132.153 128ZM117.475 105.04L107.799 77.16H107.389L97.7126 105.04H117.475ZM153.688 128.984C145.898 128.984 140.732 125.704 136.96 120.702L141.634 116.93C144.914 121.03 148.85 123.408 154.18 123.408C159.756 123.408 163.036 120.866 163.036 116.52C163.036 113.24 161.232 110.698 155.656 109.878L152.294 109.386C144.504 108.238 138.682 105.04 138.682 97.168C138.682 88.804 145.16 84.704 153.77 84.704C160.576 84.704 165.086 87.246 168.53 91.51L164.184 95.446C162.298 92.822 158.69 90.28 153.278 90.28C147.866 90.28 144.996 92.822 144.996 96.84C144.996 100.94 147.866 102.58 153.114 103.4L156.394 103.892C165.742 105.286 169.35 109.386 169.35 115.782C169.35 123.982 163.364 128.984 153.688 128.984ZM180.937 128V67.32H187.497V105.778H187.825L194.303 98.562L206.275 85.688H214.229L198.567 102.416L215.787 128H207.833L193.811 106.434L187.497 112.912V128H180.937Z" fill="#33B1FF"/>
<path d="M224.425 70.764H231.313V106.188C231.313 117.094 234.839 122.834 245.007 122.834C255.175 122.834 258.701 117.094 258.701 106.188V70.764H265.589V104.548C265.589 121.194 260.013 128.984 244.761 128.984C229.509 128.984 224.425 121.194 224.425 104.548V70.764ZM274.751 128L293.447 98.89L275.243 70.764H283.525L297.875 93.56H298.039L312.717 70.764H320.589L302.221 98.644L321.081 128H312.799L297.793 103.974H297.629L282.623 128H274.751ZM337.586 103.4V128H330.698V70.764H353.494C363.498 70.764 369.484 76.586 369.484 87C369.484 95.364 365.466 101.022 358.004 102.744L371.124 128H363.334L350.952 103.4H337.586ZM337.586 97.496H353.494C358.906 97.496 362.104 94.544 362.104 89.296V85.032C362.104 79.784 358.906 76.832 353.494 76.832H337.586V97.496Z" fill="#C6C6C6"/>
<path d="M295.335 266.5L277.5 256.25L318.5 184.5H406C411.437 184.5 416.651 182.34 420.496 178.496C424.34 174.651 426.5 169.437 426.5 164V41C426.5 35.5631 424.34 30.3488 420.496 26.5043C416.651 22.6598 411.437 20.5 406 20.5H41C35.5631 20.5 30.3488 22.6598 26.5043 26.5043C22.6598 30.3488 20.5 35.5631 20.5 41V164C20.5 169.437 22.6598 174.651 26.5043 178.496C30.3488 182.34 35.5631 184.5 41 184.5H271.25V205H41C30.1261 205 19.6976 200.68 12.0086 192.991C4.31963 185.302 0 174.874 0 164V41C0 30.1261 4.31963 19.6976 12.0086 12.0086C19.6976 4.31963 30.1261 0 41 0H406C416.874 0 427.302 4.31963 434.991 12.0086C442.68 19.6976 447 30.1261 447 41V164C447 174.874 442.68 185.302 434.991 192.991C427.302 200.68 416.874 205 406 205H330.39L295.335 266.5Z" fill="#33B1FF"/>
</svg>
